<?xml version="1.0" encoding="UTF-8"?>
<!DOCTYPE svg PUBLIC "-//W3C//DTD SVG 1.1//EN" "http://www.w3.org/Graphics/SVG/1.1/DTD/svg11.dtd">
<!-- Creator: CorelDRAW 2019 (64-Bit) -->
<svg xmlns="http://www.w3.org/2000/svg" xml:space="preserve" width="100px" height="100px" version="1.1" style="shape-rendering:geometricPrecision; text-rendering:geometricPrecision; image-rendering:optimizeQuality; fill-rule:evenodd; clip-rule:evenodd"
viewBox="0 0 100 100"
 xmlns:xlink="http://www.w3.org/1999/xlink"
 xmlns:xodm="http://www.corel.com/coreldraw/odm/2003">
 <defs>
  <style type="text/css">
   <![CDATA[
    .fil1 {fill:url(#id0);fill-rule:nonzero}
    .fil0 {fill:url(#id1);fill-rule:nonzero}
   ]]>
  </style>
  <linearGradient id="id0" gradientUnits="userSpaceOnUse" x1="-16.33" y1="56.2" x2="50.24" y2="121.92">
   <stop offset="0" style="stop-opacity:0.6; stop-color:#147887"/>
   <stop offset="1" style="stop-opacity:0.498039; stop-color:#57CBE0"/>
  </linearGradient>
  <linearGradient id="id1" gradientUnits="userSpaceOnUse" xlink:href="#id0" x1="3.21" y1="5.04" x2="3.21" y2="95.19">
  </linearGradient>
 </defs>
 <g id="Layer_x0020_1">
  <metadata id="CorelCorpID_0Corel-Layer"/>
  <path id="blob" class="fil0" d="M90.69 64.52c-10.51,12.18 -22.75,21.42 -36.7,27.69 -13.96,6.27 -23.98,2.65 -30.08,-10.87 -6.09,-13.51 -12.1,-26.67 -18.02,-39.48 -5.91,-12.81 -2.03,-20.98 11.66,-24.51 13.69,-3.53 27.91,-7.24 42.67,-11.13 14.75,-3.89 26.14,1.81 34.18,17.09 8.04,15.28 6.8,29.02 -3.71,41.21z"/>
  <path id="blob_0" class="fil1" d="M89.35 37.01c1.16,16.83 -1,32.65 -6.48,47.46 -5.48,14.81 -15.18,19.28 -29.08,13.41 -13.91,-5.88 -27.5,-11.55 -40.78,-17.02 -13.28,-5.47 -16.3,-14.47 -9.07,-27.01 7.23,-12.54 14.72,-25.6 22.45,-39.17 7.73,-13.58 19.87,-17.46 36.41,-11.64 16.54,5.82 25.39,17.15 26.55,33.97z"/>
 </g>
</svg>
